<svg xmlns="http://www.w3.org/2000/svg" viewBox="0 0 219 136" fill="none">
    <path d="M54.5436 48.4152C55.9798 49.2415 57.8055 48.7399 58.7373 47.3699C76.5398 21.1963 127.616 11.3954 162.235 47.6863C163.378 48.8852 165.282 49.0124 166.52 47.9108L179.965 35.9431C181.203 34.8415 181.304 32.9284 180.168 31.7216C135.59 -15.6686 64.4106 -6.21761 37.8976 35.3746C37.007 36.7717 37.5055 38.6124 38.9416 39.4387L54.5436 48.4152Z" fill="#4194F7"/>
    <path d="M111.364 56.5777C110.192 55.4061 108.293 55.4061 107.121 56.5777L63.364 100.335C62.1924 101.507 60.2929 101.507 59.1213 100.335L17.8492 59.063C16.6777 57.8914 14.7782 57.8914 13.6066 59.063L0.878678 71.7909C-0.292894 72.9625 -0.292892 74.862 0.878681 76.0336L59.1213 134.276C60.2929 135.448 62.1924 135.448 63.364 134.276L107.121 90.5188C108.293 89.3473 110.192 89.3473 111.364 90.5188L155.121 134.276C156.293 135.448 158.192 135.448 159.364 134.276L217.607 76.0336C218.778 74.862 218.778 72.9625 217.607 71.7909L204.879 59.063C203.707 57.8914 201.808 57.8914 200.636 59.063L159.364 100.335C158.192 101.507 156.293 101.507 155.121 100.335L111.364 56.5777Z" fill="#4194F7"/>
</svg>